<?xml version="1.0" standalone="no"?>
    <svg xmlns="http://www.w3.org/2000/svg" viewPort="0 0 223.44353478444896 223.44353478444896" fill="#000">
        
        <circle cx="109.78968302877287" cy="99.15668163926206" r="1.0797695846263342"/>
<circle cx="111.52334028825763" cy="101.64814282932058" r="2.09924686902379"/>
<circle cx="109.96737019400528" cy="104.51857685870498" r="2.8743885305581647"/>
<circle cx="106.61350668122758" cy="105.22151479906849" r="3.499960279447504"/>
<circle cx="103.50910593054448" cy="103.49401571146178" r="4.024451801142162"/>
<circle cx="101.90001948031349" cy="100.21033297354337" r="4.4760294990550396"/>
<circle cx="102.17192540882472" cy="96.4742269210901" r="4.872513756921272"/>
<circle cx="104.13859656883055" cy="93.19411858182804" r="5.225897631581889"/>
<circle cx="107.32771894698573" cy="90.95814102710848" r="5.544639686905254"/>
<circle cx="111.18093177801423" cy="90.04990291813722" r="5.834929467017273"/>
<circle cx="115.17142344672216" cy="90.51495699641222" r="6.1014328559631075"/>
<circle cx="118.8620888796335" cy="92.23510825574148" r="6.347754472688078"/>
<circle cx="121.9260862159255" cy="94.99320048940999" r="6.576736961264217"/>
<circle cx="124.14582549636891" cy="98.52334789597377" r="6.790661689790962"/>
<circle cx="125.4009304477823" cy="102.54694274512262" r="6.991387433694154"/>
<circle cx="125.6516337241402" cy="106.7967269447313" r="7.180448706336802"/>
<circle cx="124.92132258375528" cy="111.03161906156724" r="7.3591270551296475"/>
<circle cx="123.28021107693897" cy="115.04475496607141" r="7.5285037794266065"/>
<circle cx="120.83105723249454" cy="118.66676060796513" r="7.689499592861825"/>
<circle cx="117.69722854324672" cy="121.7658188564388" r="7.84290492755312"/>
<circle cx="114.01308053582436" cy="124.24569217024872" r="7.989403410806256"/>
<circle cx="109.91644275326476" cy="126.0425390864938" r="8.129590280876345"/>
<circle cx="105.54293500352742" cy="127.12111242378069" r="8.263986997054515"/>
<circle cx="101.02182127123272" cy="127.47073978450302" r="8.393052950486373"/>
<circle cx="96.47312307103107" cy="127.10134985434237" r="8.517194939854367"/>
<circle cx="92.00574263541255" cy="126.03970960543106" r="8.63677490507668"/>
<circle cx="87.71638014518173" cy="124.32596819374545" r="8.752116289722798"/>
<circle cx="83.68906321812831" cy="122.01055547781607" r="8.863509313955738"/>
<circle cx="79.99513848447496" cy="119.15145081947264" r="8.971215374475868"/>
<circle cx="76.69360313839711" cy="115.81181675372932" r="9.07547073936397"/>
<circle cx="73.8316785212891" cy="112.05797897032755" r="9.176489669216009"/>
<circle cx="71.44554816653518" cy="107.9577264432854" r="9.27446706825524"/>
<circle cx="69.56119964094749" cy="103.57890174300731" r="9.36958074788288"/>
<circle cx="68.19532336988756" cy="98.9882503215953" r="9.4619933687288"/>
<circle cx="67.35623286459638" cy="94.25049798807989" r="9.551854114488458"/>
<circle cx="67.04477979354476" cy="89.42762726024397" r="9.639300140805075"/>
<circle cx="67.25524452694856" cy="84.57832535724712" r="9.724457834528621"/>
<circle cx="67.9761884604386" cy="79.75757898281954" r="9.807443912374083"/>
<circle cx="69.1912588685609" cy="75.01639354077557" r="9.88836638294766"/>
<circle cx="70.87994048558832" cy="70.40161689092595" r="9.967325392037381"/>
<circle cx="73.01825065494141" cy="65.95585011113464" r="10.044413967764232"/>
<circle cx="75.57937689001541" cy="61.717429931424526" r="10.119718679500918"/>
<circle cx="78.53425717987685" cy="57.720469523362034" r="10.19332022226287"/>
<circle cx="81.85210446011502" cy="53.99494615297601" r="10.265293936463623"/>
<circle cx="85.50087743868811" cy="50.56682583919453" r="10.335710271427914"/>
<circle cx="89.44770048867306" cy="47.458216609812155" r="10.404635199811189"/>
<circle cx="93.65923565038229" cy="44.68754322489737" r="10.47213058903609"/>
<circle cx="98.10200996908965" cy="42.26973735696717" r="10.53825453498711"/>
<circle cx="102.74270146721692" cy="40.216438192701844" r="10.603061662473905"/>
<circle cx="107.54838703947621" cy="38.536199266981924" r="10.66660339635707"/>
<circle cx="112.48675548839536" cy="37.23469807062755" r="10.72892820670809"/>
<circle cx="117.52628880334235" cy="36.31494560159817" r="10.790081830931605"/>
<circle cx="122.63641464220159" cy="35.7774935677792" r="10.850107475399918"/>
<circle cx="127.7876328118096" cy="35.6206374089476" r="10.909045998826443"/>
<circle cx="132.9516183692028" cy="35.840613696110836" r="10.966936079327368"/>
<circle cx="138.1013037868181" cy="36.43179079712092" r="11.023814366882375"/>
<circle cx="143.21094244562585" cy="37.38685197625998" r="11.079715622699437"/>
<circle cx="148.25615554414776" cy="38.69697032941632" r="11.13467284681083"/>
<circle cx="153.21396434086236" cy="40.3519751517266" r="11.188717395073173"/>
<circle cx="158.06280948430046" cy="42.340509496584495" r="11.241879086610144"/>
<circle cx="162.78255903031766" cy="44.650178818451565" r="11.294186302619687"/>
<circle cx="167.3545066002569" cy="47.26769070109545" r="11.345666077365488"/>
<circle cx="171.76136099727862" cy="50.17898576129678" r="11.396344182082949"/>
<circle cx="175.98722847117747" cy="53.3693598888435" r="11.446245202451705"/>
<circle cx="180.01758870433298" cy="56.82357803944207" r="11.495392610217662"/>
<circle cx="183.8392654828476" cy="60.525979840349855" r="11.543808829486844"/>
<circle cx="187.4403929170421" cy="64.46057730107022" r="11.591515298159738"/>
<circle cx="190.8103779838924" cy="68.61114494507743" r="11.638532524927468"/>
<circle cx="193.9398600802326" cy="72.96130269470514" r="11.684880142208995"/>
<circle cx="196.82066819917296" cy="77.49459185134803" r="11.730576955371431"/>
<circle cx="199.44577627265323" cy="82.19454451801394" r="11.775640988542243"/>
<circle cx="201.80925715993712" cy="87.04474681200378" r="11.820089527292698"/>
<circle cx="203.9062357046436" cy="92.02889621282445" r="11.863939158445513"/>
<circle cx="205.7328412311717" cy="97.13085338505363" r="11.907205807236094"/>
<circle cx="207.28615980466645" cy="102.33468880833283" r="11.949904772035763"/>
<circle cx="208.56418653657332" cy="107.6247245374267" r="11.9920507568264"/>
<circle cx="209.56577817996393" cy="112.98557140478441" r="12.033657901599028"/>
<circle cx="210.29060622480742" cy="118.4021619665677" r="12.074739810833556"/>
<circle cx="210.73911067288196" cy="123.85977948101026" r="12.115309580203231"/>
<circle cx="210.91245464474906" cy="129.34408319541748" r="12.155379821635035"/>
<circle cx="210.81247994685245" cy="134.841130205323" r="12.194962686845853"/>
<circle cx="210.44166370509956" cy="140.33739413648456" r="12.234069889464482"/>
<circle cx="209.80307615197145" cy="145.819780887583" r="12.272712725840165"/>
<circle cx="208.90033963707253" cy="151.2756416588413" r="12.310902094630109"/>
<circle cx="207.73758891585626" cy="156.69278347939508" r="12.348648515251014"/>
<circle cx="206.31943275786563" cy="162.05947743414586" r="12.385962145272785"/>
<circle cx="204.6509169040261" cy="167.36446477908382" r="12.422852796826284"/>
<circle cx="202.73748839216654" cy="172.59696112275554" r="12.459329952091537"/>
<circle cx="200.58496126088158" cy="177.74665884061702" r="12.495402777927508"/>
<circle cx="198.1994836339443" cy="182.80372787855902" r="12.531080139699895"/>
        <circle cx="113.59119635497754" cy="96.1154709782983" r="1.0797695846263342"/>
<circle cx="111.85753909549278" cy="93.62400978823979" r="2.09924686902379"/>
<circle cx="113.41350918974513" cy="90.75357575885539" r="2.8743885305581647"/>
<circle cx="116.76737270252283" cy="90.05063781849188" r="3.499960279447504"/>
<circle cx="119.87177345320593" cy="91.7781369060986" r="4.024451801142162"/>
<circle cx="121.48085990343691" cy="95.06181964401699" r="4.4760294990550396"/>
<circle cx="121.20895397492568" cy="98.79792569647029" r="4.872513756921272"/>
<circle cx="119.24228281491986" cy="102.07803403573233" r="5.225897631581889"/>
<circle cx="116.0531604367647" cy="104.31401159045188" r="5.544639686905254"/>
<circle cx="112.19994760573618" cy="105.22224969942314" r="5.834929467017273"/>
<circle cx="108.20945593702825" cy="104.75719562114816" r="6.1014328559631075"/>
<circle cx="104.51879050411691" cy="103.03704436181889" r="6.347754472688078"/>
<circle cx="101.45479316782492" cy="100.27895212815038" r="6.576736961264217"/>
<circle cx="99.2350538873815" cy="96.74880472158661" r="6.790661689790962"/>
<circle cx="97.97994893596811" cy="92.72520987243774" r="6.991387433694154"/>
<circle cx="97.72924565961021" cy="88.47542567282906" r="7.180448706336802"/>
<circle cx="98.45955679999513" cy="84.24053355599312" r="7.3591270551296475"/>
<circle cx="100.10066830681146" cy="80.22739765148896" r="7.5285037794266065"/>
<circle cx="102.54982215125585" cy="76.60539200959523" r="7.689499592861825"/>
<circle cx="105.68365084050369" cy="73.50633376112157" r="7.84290492755312"/>
<circle cx="109.36779884792605" cy="71.02646044731165" r="7.989403410806256"/>
<circle cx="113.46443663048565" cy="69.22961353106656" r="8.129590280876345"/>
<circle cx="117.83794438022299" cy="68.15104019377969" r="8.263986997054515"/>
<circle cx="122.35905811251767" cy="67.80141283305736" r="8.393052950486373"/>
<circle cx="126.90775631271934" cy="68.170802763218" r="8.517194939854367"/>
<circle cx="131.3751367483379" cy="69.23244301212931" r="8.63677490507668"/>
<circle cx="135.66449923856868" cy="70.94618442381491" r="8.752116289722798"/>
<circle cx="139.6918161656221" cy="73.26159713974431" r="8.863509313955738"/>
<circle cx="143.38574089927545" cy="76.12070179808772" r="8.971215374475868"/>
<circle cx="146.6872762453533" cy="79.46033586383105" r="9.07547073936397"/>
<circle cx="149.54920086246133" cy="83.21417364723281" r="9.176489669216009"/>
<circle cx="151.93533121721524" cy="87.31442617427498" r="9.27446706825524"/>
<circle cx="153.81967974280295" cy="91.69325087455307" r="9.36958074788288"/>
<circle cx="155.18555601386288" cy="96.28390229596506" r="9.4619933687288"/>
<circle cx="156.02464651915406" cy="101.0216546294805" r="9.551854114488458"/>
<circle cx="156.33609959020566" cy="105.8445253573164" r="9.639300140805075"/>
<circle cx="156.12563485680187" cy="110.69382726031324" r="9.724457834528621"/>
<circle cx="155.40469092331182" cy="115.51457363474084" r="9.807443912374083"/>
<circle cx="154.18962051518955" cy="120.2557590767848" r="9.88836638294766"/>
<circle cx="152.5009388981621" cy="124.87053572663442" r="9.967325392037381"/>
<circle cx="150.362628728809" cy="129.31630250642576" r="10.044413967764232"/>
<circle cx="147.801502493735" cy="133.55472268613588" r="10.119718679500918"/>
<circle cx="144.84662220387358" cy="137.55168309419835" r="10.19332022226287"/>
<circle cx="141.52877492363538" cy="141.27720646458437" r="10.265293936463623"/>
<circle cx="137.8800019450623" cy="144.70532677836584" r="10.335710271427914"/>
<circle cx="133.93317889507733" cy="147.81393600774823" r="10.404635199811189"/>
<circle cx="129.72164373336815" cy="150.58460939266303" r="10.47213058903609"/>
<circle cx="125.27886941466075" cy="153.0024152605932" r="10.53825453498711"/>
<circle cx="120.63817791653348" cy="155.05571442485854" r="10.603061662473905"/>
<circle cx="115.8324923442742" cy="156.73595335057848" r="10.66660339635707"/>
<circle cx="110.89412389535505" cy="158.03745454693285" r="10.72892820670809"/>
<circle cx="105.85459058040806" cy="158.95720701596224" r="10.790081830931605"/>
<circle cx="100.74446474154882" cy="159.49465904978118" r="10.850107475399918"/>
<circle cx="95.59324657194081" cy="159.6515152086128" r="10.909045998826443"/>
<circle cx="90.42926101454759" cy="159.43153892144954" r="10.966936079327368"/>
<circle cx="85.2795755969323" cy="158.84036182043945" r="11.023814366882375"/>
<circle cx="80.16993693812455" cy="157.8853006413004" r="11.079715622699437"/>
<circle cx="75.12472383960267" cy="156.57518228814408" r="11.13467284681083"/>
<circle cx="70.16691504288805" cy="154.9201774658338" r="11.188717395073173"/>
<circle cx="65.31806989944998" cy="152.93164312097588" r="11.241879086610144"/>
<circle cx="60.598320353432804" cy="150.62197379910884" r="11.294186302619687"/>
<circle cx="56.02637278349352" cy="148.00446191646492" r="11.345666077365488"/>
<circle cx="51.61951838647184" cy="145.09316685626362" r="11.396344182082949"/>
<circle cx="47.39365091257298" cy="141.90279272871692" r="11.446245202451705"/>
<circle cx="43.363290679417474" cy="138.44857457811833" r="11.495392610217662"/>
<circle cx="39.541613900902824" cy="134.74617277721052" r="11.543808829486844"/>
<circle cx="35.940486466708364" cy="130.81157531649018" r="11.591515298159738"/>
<circle cx="32.570501399858045" cy="126.66100767248294" r="11.638532524927468"/>
<circle cx="29.441019303517834" cy="122.31084992285523" r="11.684880142208995"/>
<circle cx="26.560211184577515" cy="117.77756076621233" r="11.730576955371431"/>
<circle cx="23.93510311109722" cy="113.07760809954644" r="11.775640988542243"/>
<circle cx="21.57162222381335" cy="108.22740580555659" r="11.820089527292698"/>
<circle cx="19.474643679106833" cy="103.24325640473592" r="11.863939158445513"/>
<circle cx="17.648038152578735" cy="98.14129923250674" r="11.907205807236094"/>
<circle cx="16.094719579083986" cy="92.93746380922754" r="11.949904772035763"/>
<circle cx="14.816692847177128" cy="87.64742808013368" r="11.9920507568264"/>
<circle cx="13.815101203786497" cy="82.28658121277596" r="12.033657901599028"/>
<circle cx="13.09027315894303" cy="76.86999065099266" r="12.074739810833556"/>
<circle cx="12.641768710868474" cy="71.41237313655012" r="12.115309580203231"/>
<circle cx="12.468424739001396" cy="65.92806942214291" r="12.155379821635035"/>
<circle cx="12.568399436898002" cy="60.431022412237404" r="12.194962686845853"/>
<circle cx="12.939215678650905" cy="54.93475848107584" r="12.234069889464482"/>
<circle cx="13.577803231778983" cy="49.4523717299774" r="12.272712725840165"/>
<circle cx="14.480539746677916" cy="43.99651095871911" r="12.310902094630109"/>
<circle cx="15.643290467894186" cy="38.579369138165326" r="12.348648515251014"/>
<circle cx="17.06144662588481" cy="33.21267518341453" r="12.385962145272785"/>
<circle cx="18.729962479724346" cy="27.907687838476555" r="12.422852796826284"/>
<circle cx="20.643390991583907" cy="22.675191494804864" r="12.459329952091537"/>
<circle cx="22.795918122868876" cy="17.525493776943385" r="12.495402777927508"/>
<circle cx="25.181395749806153" cy="12.468424739001396" r="12.531080139699895"/>
     </svg>