<?xml version="1.0" encoding="UTF-8" standalone="yes"?>
<svg width="512" height="512" viewBox="0 0 135.46667 135.46667" version="1.2" baseProfile="tiny-ps" xmlns="http://www.w3.org/2000/svg">
  <title>Fractale</title>
  <defs id="defs2"/>
  <g id="layer1">
    <g id="g468" transform="translate(-37.266662,-80.785483)">
      <path d="M 79.070831,148.5 V 122.57083 H 105 130.92916 V 148.5 174.42916 H 105 79.070831 Z" id="path484" fill="#fdfdfd" stroke-width="0.264583"/>
      <path d="m 123.22269,174.0054 c -1.59006,-0.84105 -1.62877,-2.90237 -0.13368,-7.11878 1.39063,-3.92181 1.84611,-6.95714 1.66725,-11.11058 -0.2758,-6.40442 -2.21742,-11.49175 -5.90685,-15.47677 -6.58443,-7.11198 -16.65396,-6.33062 -20.440837,1.58614 -0.884867,1.84989 -0.9492,2.156 -0.9492,4.51663 0,2.29466 0.07478,2.67848 0.797068,4.09079 1.370007,2.67883 3.927739,3.90654 6.045259,2.90171 1.12169,-0.53228 1.2462,-0.92579 0.29292,-0.92579 -2.75548,0 -5.169091,-3.53346 -4.8074,-7.03791 0.44235,-4.28598 3.76532,-7.34944 7.99647,-7.37199 1.57569,-0.008 2.12472,0.12159 3.6173,0.85638 4.15303,2.04453 6.56359,6.54578 6.56359,12.25621 0,9.82286 -8.15952,17.68599 -17.72708,17.08314 -8.566363,-0.53977 -16.108908,-7.08107 -19.574943,-16.97646 -1.477482,-4.21815 -1.932472,-10.81239 -1.20488,-17.4625 0.393459,-3.59617 0.733626,-4.99656 2.041856,-8.40587 0.692844,-1.80558 0.902964,-2.10353 1.725945,-2.44739 1.177639,-0.49205 2.14481,-0.4962 3.298527,-0.0141 1.811484,0.75688 2.137195,2.802 0.922276,5.79091 -4.996625,12.29255 -1.124724,26.80733 8.407407,31.51725 6.244302,3.08537 13.001762,0.91763 15.844242,-5.08271 0.77357,-1.63296 0.84269,-1.99734 0.84269,-4.44201 0,-2.4399 -0.0668,-2.79389 -0.79706,-4.22308 -1.45052,-2.83882 -4.29081,-4.02187 -6.35832,-2.64839 l -0.78212,0.51958 0.92604,0.16073 c 2.8748,0.49898 4.74502,2.9621 4.75669,6.26468 0.0112,3.15925 -1.55274,5.85833 -4.26488,7.36054 -1.26423,0.70023 -1.66152,0.78461 -3.66681,0.7788 -2.793979,-0.008 -4.228633,-0.63109 -6.383119,-2.77187 -2.42516,-2.40973 -3.629414,-5.30723 -3.848692,-9.26015 -0.598769,-10.79406 8.727061,-19.56151 19.132091,-17.98656 4.26984,0.64631 8.00682,2.59713 11.35663,5.92852 4.51367,4.48886 7.19588,9.95057 7.93013,16.14791 0.81831,6.90688 0.30005,14.20876 -1.34351,18.92888 -0.53204,1.52797 -1.07802,2.98525 -1.21328,3.2384 -0.61767,1.15604 -3.27459,1.62237 -4.76172,0.83575 z" id="path482" fill="#d0d0d0" stroke-width="0.264583"/>
      <path d="m 123.47801,174.02547 c -0.42942,-0.23323 -0.88268,-0.84963 -1.16138,-1.57942 -0.44534,-1.16608 -0.44179,-1.23941 0.13771,-2.84804 2.01642,-5.5974 2.78443,-9.74252 2.56096,-13.82197 -0.37138,-6.77955 -2.51168,-12.05342 -6.49987,-16.0162 -3.14508,-3.12504 -6.19341,-4.47975 -10.09397,-4.48587 -2.53473,-0.004 -4.26369,0.50988 -6.30736,1.8746 -3.098835,2.06932 -4.855619,5.40753 -4.883747,9.28 -0.01534,2.11215 0.05607,2.43668 0.899928,4.0899 1.527021,2.99162 4.158459,4.26156 6.340549,3.05997 1.31122,-0.72204 1.37698,-1.37428 0.13855,-1.37428 -1.18969,0 -2.25443,-0.53428 -3.12387,-1.56754 -2.439506,-2.8992 -1.846989,-7.80827 1.27403,-10.5555 5.07953,-4.47118 12.75791,-0.62743 14.70364,7.36054 0.48838,2.00498 0.42002,5.84486 -0.14131,7.9375 -2.832,10.55776 -14.01644,15.65316 -23.869926,10.87465 -5.886791,-2.85483 -10.365983,-8.3147 -12.784431,-15.58346 -2.394919,-7.19804 -1.935355,-18.11137 1.066302,-25.32168 0.635208,-1.52583 1.00076,-2.05716 1.63198,-2.37205 1.862567,-0.92917 3.913037,-0.13991 4.470514,1.72078 0.360855,1.20443 0.327211,1.37381 -1.056588,5.3193 -2.334656,6.65659 -2.244147,14.48693 0.236322,20.44528 3.176517,7.63034 9.929305,12.32504 16.235737,11.28747 2.51573,-0.4139 4.36773,-1.3027 6.07094,-2.91352 3.44035,-3.25375 4.57957,-8.47928 2.69037,-12.34065 -1.53562,-3.13869 -5.02717,-4.42273 -7.04955,-2.5925 -0.70148,0.63483 -0.61198,0.89305 0.30954,0.89305 2.80872,0 4.91309,2.8785 4.82593,6.60121 -0.0713,3.04524 -2.62155,6.35236 -5.52552,7.16542 -1.65162,0.46243 -4.2189,0.22584 -5.7912,-0.53368 -2.720718,-1.31429 -5.162862,-4.57433 -6.088304,-8.12734 -0.507695,-1.94917 -0.504949,-5.87936 0.0055,-7.89429 1.594791,-6.29504 6.743687,-11.42319 12.746434,-12.6951 6.56123,-1.39023 13.81112,1.50387 18.74611,7.48332 2.47919,3.00389 4.69779,7.26776 5.68045,10.91708 0.53426,1.98409 1.05215,6.59495 1.05447,9.38813 0.006,7.12949 -2.01272,15.5405 -4.05009,16.87543 -0.83648,0.54808 -2.4379,0.57138 -3.39887,0.0495 z" id="path480" fill="#afafaf" stroke-width="0.264583"/>
      <path d="m 123.57819,174.01623 c -0.7845,-0.54949 -1.38028,-1.74876 -1.38028,-2.77846 0,-0.46004 0.40946,-1.92962 0.90989,-3.26575 3.3315,-8.89483 2.53282,-18.4731 -2.12396,-25.47181 -3.47511,-5.22277 -9.04606,-8.08846 -14.17945,-7.29389 -3.83812,0.59409 -7.074454,3.02523 -8.726351,6.55525 -1.070233,2.28703 -1.319315,5.40007 -0.612,7.6488 0.577717,1.83672 2.36897,3.94284 3.737511,4.3945 1.32942,0.43875 3.15989,0.17992 3.94521,-0.55785 0.85036,-0.79887 0.81357,-1.04286 -0.15726,-1.04286 -1.20032,0 -2.41455,-0.60245 -3.34106,-1.65768 -3.005637,-3.42323 -1.44225,-9.44393 3.01222,-11.6003 0.87159,-0.42193 1.66192,-0.57078 2.98664,-0.56249 5.62165,0.0352 10.0507,5.60664 10.0507,12.64311 0,7.29197 -4.74945,13.96328 -11.50938,16.16663 -2.48327,0.80941 -6.453393,0.98225 -8.863539,0.3859 -3.542286,-0.8765 -7.301509,-3.12266 -10.072319,-6.0183 -4.434515,-4.63429 -6.945725,-10.24603 -7.815633,-17.4654 -0.677549,-5.62298 -0.04099,-11.75213 1.771005,-17.0523 1.189409,-3.47907 2.062075,-4.4725 3.9288,-4.4725 1.060965,0 2.367636,1.18393 2.628126,2.38125 0.235583,1.08284 0.11995,1.61668 -1.117547,5.15938 -3.965905,11.35354 -0.838328,23.95804 7.292714,29.39048 2.769514,1.85035 4.456204,2.3618 7.750483,2.35018 3.06114,-0.0108 4.6956,-0.52784 6.87916,-2.17615 4.94,-3.72907 5.96701,-11.52613 2.00619,-15.23101 -1.84456,-1.72537 -3.80802,-1.96784 -5.60033,-0.69161 -0.91204,0.64943 -0.99003,1.04248 -0.20687,1.04248 2.04671,0 4.30807,1.79152 4.94507,3.91764 1.04955,3.5031 -0.77172,7.63656 -4.10296,9.31183 -1.88482,0.94787 -4.69873,0.91727 -6.727965,-0.0732 -4.774411,-2.33033 -7.417688,-8.70455 -6.222523,-15.00553 1.173621,-6.18739 5.570859,-11.28063 11.302228,-13.09117 2.55073,-0.80578 6.56428,-0.92154 9.11564,-0.26293 7.30749,1.88637 13.61093,8.51793 16.3373,17.18772 2.10771,6.70245 1.95017,15.91415 -0.38912,22.75416 -1.05278,3.07828 -1.59555,4.11672 -2.3577,4.51085 -0.97023,0.50173 -2.35345,0.48876 -3.09264,-0.029 z" id="path478" fill="#8f8f8f" stroke-width="0.264583"/>
      <path d="m 123.30045,173.63891 c -1.24902,-1.24902 -1.29523,-2.36012 -0.21493,-5.16865 1.56785,-4.07609 2.11245,-7.09054 2.10216,-11.63589 -0.0111,-4.89361 -0.68376,-7.82975 -2.75425,-12.0218 -1.15564,-2.33976 -1.71201,-3.11255 -3.64397,-5.06132 -3.52497,-3.55567 -6.654,-4.89296 -10.98342,-4.69414 -2.05749,0.0945 -2.67846,0.2401 -4.25397,0.99754 -3.4343,1.65106 -5.894472,4.97333 -6.478393,8.74857 -0.978647,6.32728 4.045283,11.61361 8.124763,8.54913 1.21859,-0.9154 1.11271,-1.32514 -0.34814,-1.34722 -3.81319,-0.0576 -5.883405,-5.11125 -3.80097,-9.27857 3.51891,-7.04195 12.81346,-5.0814 15.73485,3.31904 2.27766,6.54941 -0.36478,14.64667 -6.11996,18.75349 -2.77077,1.97717 -5.2286,2.81115 -8.71196,2.95609 -3.45645,0.14382 -5.281816,-0.23587 -8.461637,-1.76009 -11.809126,-5.66062 -17.314603,-22.23584 -12.533759,-37.73514 0.984374,-3.1913 1.575411,-4.40145 2.507892,-5.13494 2.113199,-1.66225 4.971037,0.84165 4.149484,3.63557 -0.156816,0.53329 -0.640069,1.98166 -1.073896,3.21858 -1.305214,3.72142 -1.735668,6.82067 -1.571977,11.31813 0.158568,4.35669 0.693136,6.8322 2.162251,10.01308 3.362433,7.28024 10.025958,11.70909 16.106352,10.70494 2.65943,-0.4392 4.81693,-1.55375 6.57445,-3.39633 1.69838,-1.78057 2.43661,-3.101 3.0319,-5.42301 1.4173,-5.52831 -2.26467,-11.33709 -6.4671,-10.2027 -0.90046,0.24307 -2.43456,1.38947 -2.43456,1.8193 0,0.10027 0.64626,0.23591 1.43613,0.30141 2.76198,0.22905 4.46253,2.4226 4.46253,5.75626 0,5.86979 -5.76586,9.45207 -11.076038,6.88146 -2.718069,-1.3158 -5.212062,-4.84272 -5.95498,-8.42134 -0.447254,-2.15441 -0.173018,-6.65463 0.531224,-8.71739 2.455283,-7.19165 9.065824,-11.75726 16.421974,-11.34193 4.02488,0.22725 7.39053,1.57666 10.91196,4.37502 8.79287,6.98736 12.47425,21.25159 8.78642,34.04462 -1.53747,5.33343 -2.43653,6.73848 -4.31184,6.73848 -0.82211,0 -1.23473,-0.17639 -1.84859,-0.79025 z M 105.52916,148.5 c 0,-0.14552 -0.23812,-0.26459 -0.52916,-0.26459 -0.29104,0 -0.52917,0.11907 -0.52917,0.26459 0,0.14552 0.23813,0.26458 0.52917,0.26458 0.29104,0 0.52916,-0.11906 0.52916,-0.26458 z" id="path476" fill="#6f6f6f" stroke-width="0.264583"/>
      <path d="m 123.45886,173.65732 c -0.79457,-0.70975 -0.86261,-0.89597 -0.84589,-2.3151 0.0127,-1.08044 0.3075,-2.33675 0.98288,-4.1891 2.57537,-7.06336 2.27885,-15.8169 -0.74004,-21.8466 -2.16767,-4.32955 -4.84334,-7.19465 -8.37113,-8.9638 -4.99208,-2.50348 -10.21183,-1.86893 -13.949,1.69572 -3.528367,3.3655 -4.704337,8.38626 -2.891632,12.34573 1.711128,3.73759 5.449412,5.11088 7.775472,2.85637 0.49687,-0.48158 0.90339,-0.9713 0.90339,-1.08828 0,-0.11697 -0.54169,-0.21268 -1.20376,-0.21268 -2.15596,0 -3.67269,-1.25919 -4.49354,-3.73056 -1.094052,-3.29387 0.96792,-7.7663 4.19193,-9.09231 2.23799,-0.92046 5.09373,-0.62498 7.27643,0.75291 1.4848,0.93731 3.19522,2.97472 4.02451,4.79392 4.17425,9.15689 -1.67251,20.66385 -11.56442,22.75982 -2.34271,0.49638 -4.12971,0.48872 -6.642821,-0.0285 -2.663348,-0.54814 -4.221134,-1.21312 -6.801866,-2.90355 -9.09684,-5.95861 -13.710868,-19.23303 -11.1102,-31.96373 0.653698,-3.19996 1.722944,-6.58904 2.635713,-8.35414 0.869099,-1.68065 2.46063,-2.06482 3.818981,-0.92185 1.240829,1.04409 1.491163,2.38054 0.799357,4.26748 -2.03867,5.56061 -2.497979,7.99961 -2.456313,13.04342 0.03813,4.61517 0.732684,7.70279 2.584777,11.49049 5.830671,11.92423 19.686562,13.80836 24.822702,3.37539 0.8188,-1.66321 0.8654,-1.91492 0.8654,-4.67386 0,-2.42679 -0.0955,-3.12266 -0.56947,-4.14797 -1.16683,-2.5243 -3.84841,-4.24766 -5.95414,-3.82652 -1.10998,0.222 -2.60452,1.38264 -2.60452,2.02265 0,0.42106 0.13316,0.48246 0.77007,0.35507 1.86652,-0.3733 4.13215,1.40312 4.79107,3.75657 0.68839,2.45868 -0.23018,5.88085 -2.03073,7.56562 -1.47462,1.37977 -2.95616,1.94193 -5.11791,1.94193 -2.542724,0 -4.438281,-0.86859 -6.267998,-2.87215 -5.176002,-5.66779 -4.493012,-15.60597 1.478098,-21.50778 8.9567,-8.85274 23.44214,-4.77867 29.85261,8.39614 1.30652,2.68515 1.97939,4.69401 2.76778,8.26321 0.77863,3.52499 0.82881,9.44895 0.11022,13.01225 -0.97976,4.85846 -2.41053,8.9068 -3.57672,10.12031 -0.83407,0.86792 -2.17111,0.7955 -3.25929,-0.17653 z m -17.66511,-24.86034 c 0,-0.42531 -0.78111,-0.88762 -1.21706,-0.72033 -0.34845,0.13372 -0.36804,0.23973 -0.10326,0.55877 0.35221,0.42439 1.32032,0.54285 1.32032,0.16156 z" id="path474" fill="#4e4e4e" stroke-width="0.264583"/>
      <path d="m 123.53522,173.56927 c -1.2251,-1.30673 -1.28646,-2.25645 -0.3116,-4.82284 3.27825,-8.63029 3.05668,-17.05777 -0.63621,-24.19887 -3.1635,-6.11738 -8.44468,-9.8059 -14.03999,-9.8059 -7.21036,0 -12.633385,6.16727 -11.692716,13.29739 0.536184,4.06419 3.931226,7.17925 6.866146,6.29993 1.22616,-0.36737 2.60206,-1.49247 2.60206,-2.12776 0,-0.39522 -0.21842,-0.47178 -1.29946,-0.45547 -3.77692,0.057 -5.796402,-4.853 -3.71183,-9.0246 1.39489,-2.79143 3.83474,-4.18442 6.94424,-3.9647 4.19457,0.29639 7.69102,3.90925 8.77979,9.07209 0.49572,2.35065 0.49799,3.80567 0.01,6.35645 -1.20809,6.31408 -5.90018,11.41995 -11.90276,12.95241 -2.02679,0.51744 -5.939794,0.51615 -7.95861,-0.003 -8.567911,-2.20173 -14.962405,-10.03371 -17.241356,-21.11722 -0.691954,-3.36527 -0.635239,-9.8665 0.116805,-13.38927 0.76099,-3.56467 2.01543,-7.31698 2.904592,-8.68827 1.121083,-1.72896 2.581786,-1.7773 3.845623,-0.12724 0.967389,1.26301 0.933677,2.22569 -0.182285,5.20521 -1.562981,4.17303 -2.070105,7.31851 -1.923615,11.9314 0.184304,5.80365 1.373061,9.79195 4.127603,13.84819 5.100949,7.51148 13.741723,9.76831 19.842243,5.18248 5.55594,-4.17648 6.36039,-12.46758 1.58292,-16.31449 -1.69884,-1.36793 -4.28557,-1.32443 -5.73895,0.0965 -1.21568,1.18855 -1.09479,1.47095 0.68479,1.59967 2.78252,0.20127 4.40583,2.23524 4.39714,5.50951 -0.0182,6.85518 -7.91974,9.97712 -12.931838,5.10943 -2.885296,-2.80216 -4.289661,-7.09898 -3.825401,-11.70425 0.695702,-6.90108 5.523983,-12.64453 12.028159,-14.30802 7.61374,-1.94727 15.60367,1.71509 20.71172,9.49367 2.27103,3.45834 3.37685,6.38988 4.85264,12.86438 0.4369,1.91673 0.462,8.62377 0.0378,10.09383 -0.16169,0.56026 -0.60561,2.35614 -0.98651,3.99084 -1.65586,7.10648 -3.69444,9.55513 -5.95107,7.14814 z M 105.76461,148.3326 c -0.4153,-0.50041 -1.55836,-0.46841 -1.55836,0.0436 0,0.52744 1.08188,0.94423 1.52461,0.58736 0.25113,-0.20242 0.25951,-0.35898 0.0337,-0.63099 z" id="path472" fill="#2f2f2f" stroke-width="0.264583"/>
      <path d="m 124.18229,174.16458 c -0.29104,-0.12507 -0.42929,-0.23576 -0.30721,-0.24599 0.12208,-0.0102 -0.0863,-0.38492 -0.46302,-0.83264 -0.90797,-1.07907 -0.87993,-2.12099 0.12518,-4.65121 1.6168,-4.07007 1.95688,-6.06461 1.95538,-11.46808 -0.001,-4.25818 -0.0798,-5.18728 -0.60455,-7.14375 -2.73853,-10.21059 -10.91584,-16.72831 -18.88286,-15.05057 -4.29976,0.90546 -7.937429,4.32921 -9.07848,8.54459 -0.590184,2.18032 -0.448501,5.32784 0.317288,7.04859 1.85895,4.17712 6.198412,5.56889 8.772112,2.81343 0.34059,-0.36465 0.57498,-0.88198 0.52085,-1.14962 -0.08,-0.39551 -0.30411,-0.47127 -1.19699,-0.40459 -3.74078,0.27933 -6.000783,-4.90606 -3.9048,-8.95924 0.63995,-1.23753 2.40637,-2.81476 3.70994,-3.3126 1.74732,-0.6673 4.70154,-0.42439 6.31124,0.51896 7.09417,4.15746 7.66005,15.98239 1.08678,22.7102 -4.61761,4.72618 -11.23637,6.09026 -17.595124,3.62623 -5.200034,-2.01502 -10.106584,-7.07588 -12.615631,-13.0124 -1.120246,-2.65055 -2.140944,-6.35726 -2.373074,-8.61792 -0.108524,-1.05689 -0.253558,-1.54411 -0.393799,-1.32292 -0.125509,0.19796 -0.222005,-1.31739 -0.222005,-3.4863 0,-2.57339 0.08444,-3.7058 0.256481,-3.43959 0.190399,0.29463 0.257524,0.13731 0.260531,-0.61058 0.01208,-3.00415 2.369075,-10.96036 3.553782,-11.99606 0.35741,-0.31245 0.592358,-0.62557 0.522106,-0.69583 -0.271027,-0.27102 1.207905,-0.44224 1.793293,-0.2076 0.33944,0.13605 0.517282,0.25491 0.395205,0.26414 -0.122076,0.009 0.08628,0.38309 0.463021,0.83082 0.891292,1.05924 0.894907,2.38613 0.01239,4.54902 -2.878472,7.05462 -2.930355,15.85888 -0.132203,22.43444 2.18867,5.1433 6.001266,9.07197 10.555791,10.87716 1.232339,0.48844 2.026343,0.59415 4.536506,0.60401 2.96455,0.0116 3.09445,-0.0128 5.05743,-0.95021 3.6234,-1.73038 6.14645,-5.02308 6.84821,-8.93723 1.12234,-6.26001 -3.94127,-12.00336 -8.32023,-9.43713 -1.12862,0.66142 -1.92262,1.75057 -1.62602,2.23046 0.0933,0.15104 0.76788,0.26998 1.49898,0.26432 4.46703,-0.0346 6.0169,6.38608 2.48874,10.31023 -2.91211,3.23897 -7.639416,3.0625 -11.079336,-0.41359 -5.204279,-5.25901 -4.53521,-15.37108 1.40491,-21.23332 3.052616,-3.0126 6.710306,-4.50114 11.041546,-4.4935 8.07607,0.0143 15.19554,5.4661 19.04241,14.58206 0.9658,2.28866 2.21741,6.94394 2.21801,8.24974 1.9e-4,0.40877 0.10202,0.68037 0.2263,0.60357 0.12427,-0.0768 0.29342,0.90174 0.37588,2.17456 0.18126,2.79772 -0.0563,6.85128 -0.37228,6.35291 -0.14969,-0.23608 -0.22277,-0.10986 -0.2255,0.3895 -0.0131,2.39528 -2.35284,10.23303 -3.35342,11.23361 -0.32743,0.32744 -0.51145,0.59716 -0.40892,0.59939 0.10252,0.002 0.008,0.11947 -0.21047,0.26053 -0.47807,0.30896 -1.26539,0.30896 -1.98437,0 z m -18.03122,-25.26005 c 0.21956,-0.57216 -0.58363,-1.2392 -1.38051,-1.1465 -0.77013,0.0896 -1.10899,0.93093 -0.5242,1.30152 0.57326,0.3633 1.74233,0.26815 1.90471,-0.15502 z" id="path470" fill="#020202" stroke-width="0.264583"/>
    </g>
  </g>
</svg>
